<svg version="1.0" xmlns="http://www.w3.org/2000/svg" width="114.000000pt" height="91.000000pt"
	viewBox="0 0 114.000000 91.000000" preserveAspectRatio="xMidYMid meet">
	<g transform="translate(0.000000,91.000000) scale(0.100000,-0.100000)" fill="#34a5ff"
		stroke="#34a5ff">
		<path
			d="M611 878 c-58 -181 -240 -833 -234 -838 14 -13 133 -38 138 -30 8 12 242 811 246 838 4 23 -7 30 -58 42 -32 7 -63 15 -69 17 -7 2 -17 -11 -23 -29z m84 -12 c19 -8 35 -19 35 -23 0 -4 -27 -102 -61 -218 -33 -116 -65 -223 -69 -240 -55 -197 -98 -337 -106 -345 -15 -15 -84 16 -84 36 0 13 206 737 225 792 6 16 18 15 60 -2z" />
		<path
			d="M145 599 c-72 -67 -134 -127 -138 -135 -7 -13 68 -91 224 -232 l47 -42 50 52 c27 28 48 56 45 62 -3 6 -41 42 -85 80 l-80 70 43 40 c24 22 63 57 87 78 l42 39 -47 54 c-27 30 -50 55 -53 55 -3 0 -64 -54 -135 -121z m175 38 c15 -27 15 -28 -57 -98 -40 -39 -73 -76 -73 -83 0 -11 40 -54 126 -134 20 -19 17 -36 -12 -66 -32 -31 -18 -39 -167 98 l-108 100 49 45 c26 25 78 74 115 109 74 70 101 76 127 29z" />
		<path
			d="M807 672 c-26 -26 -47 -52 -47 -58 0 -6 38 -43 85 -83 47 -41 85 -74 85 -75 0 -2 -38 -35 -85 -75 -47 -41 -85 -76 -85 -80 0 -4 22 -32 49 -62 l48 -54 137 129 c75 70 136 134 136 141 0 12 -250 256 -269 263 -3 1 -28 -19 -54 -46z m109 -38 c129 -118 184 -176 177 -187 -4 -7 -32 -34 -62 -62 -29 -27 -79 -73 -109 -102 -61 -56 -76 -57 -108 -7 -17 25 -16 25 61 98 90 85 91 78 -9 175 -36 34 -66 66 -66 69 0 13 45 52 60 52 9 0 34 -16 56 -36z" />
	</g>
</svg> 