<svg xmlns="http://www.w3.org/2000/svg" version="1.1"
    xmlns:xlink="http://www.w3.org/1999/xlink"
    xmlns:svgjs="http://svgjs.dev/svgjs" width="1500" height="314" viewBox="0 0 1500 314">
    <g transform="matrix(1,0,0,1,-0.9090909090909918,-0.423942696466753)">
        <svg viewBox="0 0 396 83" data-background-color="#ffffff" preserveAspectRatio="xMidYMid meet" height="314" width="1500"
            xmlns="http://www.w3.org/2000/svg"
            xmlns:xlink="http://www.w3.org/1999/xlink">
            <g id="tight-bounds" transform="matrix(1,0,0,1,0.2400000000000091,0.11206128600872489)">
                <svg viewBox="0 0 395.52 82.77587742798254" height="82.77587742798254" width="395.52">
                    <g>
                        <svg viewBox="0 0 561.1612426951134 117.44188471547601" height="82.77587742798254" width="395.52">

                            <g transform="matrix(1,0,0,1,165.64124269511336,16.23111431306507)">

                            </g>
                            <g>
                                <svg viewBox="0 0 117.85437502807426 117.44188471547601" height="117.44188471547601" width="117.85437502807426">
                                    <g>
                                        <svg xmlns="http://www.w3.org/2000/svg" viewBox="0 0.04199999999999804 24 23.916" enable-background="new 0 0 24 24" x="0" y="0" height="117.44188471547601" width="117.85437502807426" class="icon-icon-0" data-fill-palette-color="accent" id="icon-0">
                                            <g fill="#3c82f5" data-fill-palette-color="accent">
                                                <path d="M20 20c-0.553 0-1-0.447-1-1v-15.958c0-0.552 0.447-1 1-1s1 0.448 1 1v15.958c0 0.553-0.447 1-1 1zM20 4.042c-0.553 0-1-0.448-1-1 0-0.551-0.448-1-1-1h-15c-0.552 0-1-0.448-1-1s0.448-1 1-1h15c1.654 0 3 1.346 3 3 0 0.552-0.447 1-1 1zM21 23.958c-0.553 0-1-0.447-1-1 0-0.552 0.447-1 1-1 0.552 0 1-0.448 1-1v-0.958h-13c-0.552 0-1-0.447-1-1 0-0.552 0.448-1 1-1h14c0.553 0 1 0.448 1 1v1.958c0 1.654-1.346 3-3 3zM7 23.958c-1.654 0-3-1.346-3-3 0-0.552 0.448-1 1-1s1 0.448 1 1 0.449 1 1 1 1-0.448 1-1v-1.958c0-0.552 0.448-1 1-1s1 0.448 1 1v1.958c0 1.654-1.346 3-3 3zM21 23.958h-14c-1.654 0-3-1.346-3-3v-14.958h-3c-0.552 0-1-0.448-1-1v-1.958c0-1.654 1.346-3 3-3s3 1.346 3 3v17.917c0 0.552 0.449 1 1 1h14c0.553 0 1 0.447 1 1 0 0.551-0.447 0.999-1 0.999z m-19-19.958h2v-0.958c0-0.551-0.449-1-1-1s-1 0.449-1 1v0.958zM16 11h-7c-0.552 0-1-0.448-1-1s0.448-1 1-1h7c0.553 0 1 0.448 1 1s-0.447 1-1 1zM16 7.06h-4c-0.55 0-1-0.45-1-1s0.45-1 1-1h4c0.55 0 1 0.45 1 1s-0.45 1-1 1z m-7 0c-0.55 0-1-0.45-1-1s0.45-1 1-1 1 0.45 1 1-0.45 1-1 1zM16 15h-7c-0.552 0-1-0.447-1-1s0.448-1 1-1h7c0.553 0 1 0.447 1 1s-0.447 1-1 1z" fill="#3c82f5" data-fill-palette-color="accent"></path>
                                            </g>
                                        </svg>
                                    </g>
                                </svg>
                            </g>
                        </svg>
                    </g>
                    <defs></defs>
                </svg>
                <rect width="395.52" height="82.77587742798254" fill="none" stroke="none" visibility="hidden"></rect>
            </g>
        </svg>
    </g>
</svg>