 <svg  version="1.0" xmlns="http://www.w3.org/2000/svg"  width="114.000000pt" height="91.000000pt" viewBox="0 0 114.000000 91.000000"  preserveAspectRatio="xMidYMid meet">  <g transform="translate(0.000000,91.000000) scale(0.050000,-0.050000)" fill="#36a5ff" stroke="none"> <path d="M1192 1655 c-206 -685 -452 -1562 -442 -1572 26 -26 261 -80 277 -64 26 26 508 1697 495 1716 -10 14 -237 85 -271 85 -5 0 -32 -74 -59 -165z"/> <path d="M345 1253 c-107 -103 -229 -216 -270 -252 -88 -76 -93 -104 -25 -157 27 -22 150 -135 273 -252 263 -249 229 -239 348 -100 l96 113 -108 92 c-60 51 -139 121 -177 155 l-68 61 173 149 c204 174 195 144 81 273 -115 132 -93 138 -323 -82z"/> <path d="M1614 1344 c-120 -122 -123 -112 76 -283 94 -80 170 -148 170 -150 0 -2 -76 -70 -170 -150 -200 -171 -198 -165 -70 -291 l100 -98 85 80 c47 45 174 166 282 270 l198 188 -278 265 c-323 309 -276 288 -393 169z"/> </g> </svg> 