<svg id="visual" viewBox="0 0 900 600" width="900" height="600" xmlns="http://www.w3.org/2000/svg" xmlns:xlink="http://www.w3.org/1999/xlink" version="1.1"><rect x="0" y="0" width="900" height="600" fill="#020817"></rect><defs><linearGradient id="grad1_0" x1="33.3%" y1="0%" x2="100%" y2="100%"><stop offset="20%" stop-color="#3b82f6" stop-opacity="1"></stop><stop offset="80%" stop-color="#3b82f6" stop-opacity="1"></stop></linearGradient></defs><defs><linearGradient id="grad1_1" x1="33.3%" y1="0%" x2="100%" y2="100%"><stop offset="20%" stop-color="#3b82f6" stop-opacity="1"></stop><stop offset="80%" stop-color="#1b447d" stop-opacity="1"></stop></linearGradient></defs><defs><linearGradient id="grad1_2" x1="33.3%" y1="0%" x2="100%" y2="100%"><stop offset="20%" stop-color="#020817" stop-opacity="1"></stop><stop offset="80%" stop-color="#1b447d" stop-opacity="1"></stop></linearGradient></defs><defs><linearGradient id="grad2_0" x1="0%" y1="0%" x2="66.7%" y2="100%"><stop offset="20%" stop-color="#3b82f6" stop-opacity="1"></stop><stop offset="80%" stop-color="#3b82f6" stop-opacity="1"></stop></linearGradient></defs><defs><linearGradient id="grad2_1" x1="0%" y1="0%" x2="66.7%" y2="100%"><stop offset="20%" stop-color="#1b447d" stop-opacity="1"></stop><stop offset="80%" stop-color="#3b82f6" stop-opacity="1"></stop></linearGradient></defs><defs><linearGradient id="grad2_2" x1="0%" y1="0%" x2="66.7%" y2="100%"><stop offset="20%" stop-color="#1b447d" stop-opacity="1"></stop><stop offset="80%" stop-color="#020817" stop-opacity="1"></stop></linearGradient></defs><g transform="translate(900, 0)"><path d="M0 243.4C-26 228.1 -51.9 212.8 -84.6 204.2C-117.2 195.5 -156.5 193.6 -172.1 172.1C-187.7 150.6 -179.6 109.6 -187.5 77.7C-195.5 45.8 -219.4 22.9 -243.4 0L0 0Z" fill="#122747"></path><path d="M0 162.2C-17.3 152.1 -34.6 141.9 -56.4 136.1C-78.1 130.4 -104.3 129 -114.7 114.7C-125.1 100.4 -119.7 73.1 -125 51.8C-130.3 30.5 -146.3 15.3 -162.2 0L0 0Z" fill="#2862b8"></path><path d="M0 81.1C-8.7 76 -17.3 70.9 -28.2 68.1C-39.1 65.2 -52.2 64.5 -57.4 57.4C-62.6 50.2 -59.9 36.5 -62.5 25.9C-65.2 15.3 -73.1 7.6 -81.1 0L0 0Z" fill="#3b82f6"></path></g><g transform="translate(0, 600)"><path d="M0 -243.4C26.9 -230.5 53.7 -217.6 86.5 -208.8C119.2 -199.9 157.9 -195.1 172.1 -172.1C186.3 -149.1 176 -107.9 183.9 -76.2C191.7 -44.4 217.5 -22.2 243.4 0L0 0Z" fill="#122747"></path><path d="M0 -162.2C17.9 -153.7 35.8 -145.1 57.7 -139.2C79.5 -133.3 105.3 -130.1 114.7 -114.7C124.2 -99.4 117.4 -71.9 122.6 -50.8C127.8 -29.6 145 -14.8 162.2 0L0 0Z" fill="#2862b8"></path><path d="M0 -81.1C9 -76.8 17.9 -72.5 28.8 -69.6C39.7 -66.6 52.6 -65 57.4 -57.4C62.1 -49.7 58.7 -36 61.3 -25.4C63.9 -14.8 72.5 -7.4 81.1 0L0 0Z" fill="#3b82f6"></path></g></svg>