<svg id="visual" viewBox="0 0 900 600" width="900" height="600" xmlns="http://www.w3.org/2000/svg" xmlns:xlink="http://www.w3.org/1999/xlink" version="1.1"><path d="M0 412L21.5 439.8C43 467.7 86 523.3 128.8 522.2C171.7 521 214.3 463 257.2 433C300 403 343 401 385.8 413.2C428.7 425.3 471.3 451.7 514.2 468.8C557 486 600 494 642.8 508C685.7 522 728.3 542 771.2 541.8C814 541.7 857 521.3 878.5 511.2L900 501L900 601L878.5 601C857 601 814 601 771.2 601C728.3 601 685.7 601 642.8 601C600 601 557 601 514.2 601C471.3 601 428.7 601 385.8 601C343 601 300 601 257.2 601C214.3 601 171.7 601 128.8 601C86 601 43 601 21.5 601L0 601Z" fill="#0066FF" stroke-linecap="round" stroke-linejoin="miter"></path></svg>